<svg xmlns="http://www.w3.org/2000/svg" width="22.147" height="23.187" viewBox="0 0 22.147 23.187">
  <path id="settings_icon" data-name="settings icon" d="M21.651,14.974a8.713,8.713,0,0,0,.074-1.069,8.713,8.713,0,0,0-.074-1.069l2.244-1.8a.56.56,0,0,0,.128-.7L21.9,6.566a.528.528,0,0,0-.649-.24L18.6,7.417a7.724,7.724,0,0,0-1.8-1.069l-.4-2.89A.523.523,0,0,0,15.878,3H11.625a.523.523,0,0,0-.521.458l-.4,2.89A8.123,8.123,0,0,0,8.9,7.417L6.255,6.326a.513.513,0,0,0-.649.24L3.48,10.339a.547.547,0,0,0,.128.7l2.244,1.8a8.867,8.867,0,0,0-.074,1.069,8.867,8.867,0,0,0,.074,1.069l-2.244,1.8a.56.56,0,0,0-.128.7l2.127,3.773a.528.528,0,0,0,.649.24L8.9,20.394a7.724,7.724,0,0,0,1.8,1.069l.4,2.89a.523.523,0,0,0,.521.458h4.253a.523.523,0,0,0,.521-.458l.4-2.89a8.123,8.123,0,0,0,1.8-1.069l2.648,1.091a.513.513,0,0,0,.649-.24l2.127-3.773a.56.56,0,0,0-.128-.7l-2.244-1.8Zm-7.9,2.748a3.818,3.818,0,1,1,3.722-3.817A3.774,3.774,0,0,1,13.751,17.722Z" transform="matrix(1, -0.017, 0.017, 1, -2.914, -2.07)" fill="none" stroke="#1a1c19" stroke-width="1"/>
</svg>
